<svg xmlns="http://www.w3.org/2000/svg" viewBox="0 0 20 21.429">
  <defs>
    <style>
      .cls-1 {
        opacity: 0.47;
      }
    </style>
  </defs>
  <g id="calendar_1_" data-name="calendar (1)" class="cls-1">
    <path id="Path_10" data-name="Path 10" d="M21.643,1.429h-2.5V.357A.357.357,0,0,0,18.786,0h-2.5a.357.357,0,0,0-.357.357V1.429H8.071V.357A.357.357,0,0,0,7.714,0h-2.5a.357.357,0,0,0-.357.357V1.429h-2.5A.357.357,0,0,0,2,1.786V21.071a.357.357,0,0,0,.357.357H21.643A.357.357,0,0,0,22,21.071V1.786A.357.357,0,0,0,21.643,1.429Zm-5-.714h1.786V2.857H16.643V.714ZM5.571.714H7.357V2.857H5.571V.714ZM2.714,2.143H4.857V3.214a.357.357,0,0,0,.357.357h2.5a.357.357,0,0,0,.357-.357V2.143h7.857V3.214a.357.357,0,0,0,.357.357h2.5a.357.357,0,0,0,.357-.357V2.143h2.143V5.357H2.714Zm0,18.571V6.071H21.286V20.714Z" transform="translate(-2)"/>
    <path id="Path_11" data-name="Path 11" d="M20.643,23H11V33.357H24.571V23H20.643Zm-2.5.714h2.5v2.5h-2.5Zm2.5,5.714h-2.5v-2.5h2.5Zm-5.714-2.5h2.5v2.5h-2.5Zm0-3.214h2.5v2.5h-2.5Zm-3.214,0h2.5v2.5h-2.5Zm0,3.214h2.5v2.5h-2.5Zm2.5,5.714h-2.5v-2.5h2.5Zm3.214,0h-2.5v-2.5h2.5Zm3.214,0h-2.5v-2.5h2.5Zm3.214,0h-2.5v-2.5h2.5Zm0-3.214h-2.5v-2.5h2.5Zm0-5.714v2.5h-2.5v-2.5Z" transform="translate(-7.786 -14.786)"/>
  </g>
</svg>
