<svg xmlns="http://www.w3.org/2000/svg" viewBox="0 0 167.383 27.162">
  <defs>
    <style>
      .cls-1 {
        fill: #fff;
      }

      .cls-2 {
        fill: #48c300;
      }
    </style>
  </defs>
  <g id="Group_46" data-name="Group 46" transform="translate(0 0)">
    <path id="Path_269" data-name="Path 269" class="cls-1" d="M68.255,21.5H65.3v2.289H53.46V14.862h10.4V11.887H53.46V3.876H65.3V6.165h2.959V.9H48.3V3.876h1.9V23.789H48.3v2.976H68.255Z" transform="translate(-11.652 -0.213)"/>
    <path id="Path_270" data-name="Path 270" class="cls-1" d="M18.21,13.055c.152-.153.379-.153.531-.229a4.37,4.37,0,0,0,1.442-1.45,5.18,5.18,0,0,0,.911-1.831,6.2,6.2,0,0,0,.379-2.06,5.456,5.456,0,0,0-.759-3.128,6.371,6.371,0,0,0-4.628-3.128A15.3,15.3,0,0,0,12.9,1H0V3.976H2.049v19.99H.152v2.976H13.2a16.694,16.694,0,0,0,3.642-.381,7.973,7.973,0,0,0,2.58-1.068,5.342,5.342,0,0,0,1.669-1.45c.379-.534.759-1.144,1.062-1.679a4.486,4.486,0,0,0,.379-1.679,5.231,5.231,0,0,0,.152-1.45,6.8,6.8,0,0,0-1.518-4.425,9.408,9.408,0,0,0-2.959-1.755M13.051,3.9c3.49,0,5.16,1.45,5.16,4.273a7.26,7.26,0,0,1-.228,1.45,3.375,3.375,0,0,1-.911,1.144,2.633,2.633,0,0,1-1.518.763,7.467,7.467,0,0,1-2.352.229H5.387V3.747h7.588V3.9ZM18.59,21.524a3,3,0,0,1-1.29,1.45,4.733,4.733,0,0,1-1.9.763,11.942,11.942,0,0,1-2.428.229H5.16V14.886H12.9a7.988,7.988,0,0,1,4.628,1.144,3.708,3.708,0,0,1,1.518,3.281,3.774,3.774,0,0,1-.455,2.213" transform="translate(0 -0.237)"/>
    <path id="Path_271" data-name="Path 271" class="cls-1" d="M212.417.2a1.689,1.689,0,0,0-1.669,1.679v9.69H196.939V1.879a1.669,1.669,0,1,0-3.339,0V25.454a1.669,1.669,0,1,0,3.339,0V14.544h13.809v10.91a1.669,1.669,0,1,0,3.339,0V1.879A1.689,1.689,0,0,0,212.417.2" transform="translate(-46.704 -0.047)"/>
    <path id="Path_272" data-name="Path 272" class="cls-1" d="M165.41,21.287h0l-1.138,1.068a4.61,4.61,0,0,1-1.821,1.144,7.342,7.342,0,0,1-2.959.687,7.483,7.483,0,0,1-4.021-.916,9.313,9.313,0,0,1-2.732-2.365,7.932,7.932,0,0,1-1.518-3.357,13.746,13.746,0,0,1-.531-3.891,13.22,13.22,0,0,1,2.049-7.248,6.8,6.8,0,0,1,2.732-2.365,8.25,8.25,0,0,1,4.021-.916,8.1,8.1,0,0,1,2.428.381,5.826,5.826,0,0,1,2.049,1.068,13.229,13.229,0,0,1,1.062.916l.152.153a1.673,1.673,0,0,0,2.352.153,1.7,1.7,0,0,0,.152-2.365l-.152-.153A14.6,14.6,0,0,0,166.4,2.213,9.473,9.473,0,0,0,163.134.534,11.377,11.377,0,0,0,159.492,0a11.83,11.83,0,0,0-5.311,1.144,11.464,11.464,0,0,0-3.87,2.976,13.881,13.881,0,0,0-2.352,4.273,15.877,15.877,0,0,0-.759,5.036,15.239,15.239,0,0,0,.759,5.036,12.333,12.333,0,0,0,2.352,4.273,11.464,11.464,0,0,0,3.87,2.976,11.83,11.83,0,0,0,5.311,1.144,9.827,9.827,0,0,0,4.1-.763,8.873,8.873,0,0,0,2.807-1.679l1.062-.916a1.571,1.571,0,0,0,.152-2.213,1.55,1.55,0,0,0-2.2,0" transform="translate(-35.51 0)"/>
    <path id="Path_273" data-name="Path 273" class="cls-1" d="M101.312,9.293,93.8.9h4.4l21.018,23.728a1.664,1.664,0,0,1-1.138,2.747,1.368,1.368,0,0,1-1.138-.534Z" transform="translate(-22.628 -0.213)"/>
    <path id="Path_274" data-name="Path 274" class="cls-2" d="M126.6.8V5.759L122.2.8Z" transform="translate(-29.479 -0.19)"/>
    <rect id="Rectangle_192" data-name="Rectangle 192" class="cls-1" width="4.401" height="4.425" transform="translate(71.172 22.279)"/>
  </g>
</svg>
