<svg xmlns="http://www.w3.org/2000/svg" viewBox="0 0 18.487 17.699">
  <defs>
    <style>
      .cls-1 {
        fill-rule: evenodd;
        opacity: 0.34;
      }
    </style>
  </defs>
  <path id="Path_17" data-name="Path 17" class="cls-1" d="M9.242,17.7A9.063,9.063,0,0,1,0,8.849,9.063,9.063,0,0,1,9.242,0a9.063,9.063,0,0,1,9.244,8.849A9.063,9.063,0,0,1,9.242,17.7Zm0-16.961A8.308,8.308,0,0,0,.768,8.849a8.308,8.308,0,0,0,8.473,8.112,8.308,8.308,0,0,0,8.473-8.112A8.308,8.308,0,0,0,9.242.737ZM7.7,12.537H8.856V8.112H7.7V7.375H9.627v5.162h1.155v.737H7.7ZM9.242,5.9a.738.738,0,1,1,.77-.737A.754.754,0,0,1,9.242,5.9Z" transform="translate(0.002)"/>
</svg>
