<svg xmlns="http://www.w3.org/2000/svg" viewBox="0 0 24.338 24.338">
  <defs>
    <style>
      .cls-1 {
        fill: #fff;
        fill-rule: evenodd;
      }
    </style>
  </defs>
  <path id="Path_9" data-name="Path 9" class="cls-1" d="M23.376,20.525a4.549,4.549,0,0,1-4.5,3.813H5.465a4.549,4.549,0,0,1-4.5-3.813L0,14.7,4.142,8.338l.844.563L1.454,14.2H9l.423,1.479a2.854,2.854,0,0,0,5.488,0l.423-1.479h7.548L19.353,8.9l.844-.563L24.339,14.7ZM16.1,15.212l-.212.744a3.868,3.868,0,0,1-7.438,0l-.212-.744H1.105l.858,5.147a3.538,3.538,0,0,0,3.5,2.966h13.41a3.538,3.538,0,0,0,3.5-2.966l.858-5.147Zm-9-7.754.787-.717,3.776,3.7V0h1.014V10.438l3.806-3.7.755.717-5.068,4.712Z"/>
</svg>
